<svg width="795" height="161" viewBox="0 0 795 161" fill="none" xmlns="http://www.w3.org/2000/svg">
<path d="M148.356 129V38.76H164.868V129H148.356ZM230.556 130.28C221.169 130.28 213.105 128.403 206.363 124.648C199.707 120.808 194.587 115.432 191.003 108.52C187.419 101.523 185.627 93.288 185.627 83.816C185.627 74.344 187.419 66.152 191.003 59.24C194.587 52.328 199.707 46.9947 206.363 43.24C213.105 39.4 221.169 37.48 230.556 37.48C236.87 37.48 242.545 38.376 247.58 40.168C252.7 41.96 257.094 44.6053 260.764 48.104L255.388 61.16C251.377 57.9173 247.494 55.6133 243.739 54.248C240.07 52.7973 235.846 52.072 231.068 52.072C221.937 52.072 214.939 54.8453 210.075 60.392C205.297 65.8533 202.907 73.6613 202.907 83.816C202.907 93.9707 205.297 101.821 210.075 107.368C214.939 112.915 221.937 115.688 231.068 115.688C235.846 115.688 240.07 115.005 243.739 113.64C247.494 112.189 251.377 109.8 255.388 106.472L260.764 119.528C257.094 122.941 252.7 125.587 247.58 127.464C242.545 129.341 236.87 130.28 230.556 130.28ZM300.034 129V52.328H270.21V38.76H346.37V52.328H316.546V129H300.034ZM361.877 129V38.76H378.389V115.048H420.885V129H361.877Z" fill="white"/>
<path d="M477.917 130.152C468.872 130.152 461.192 128.275 454.877 124.52C448.563 120.765 443.699 115.432 440.285 108.52C436.957 101.608 435.293 93.3733 435.293 83.816C435.293 74.2587 436.957 66.0667 440.285 59.24C443.699 52.328 448.563 46.9947 454.877 43.24C461.192 39.4853 468.872 37.608 477.917 37.608C484.317 37.608 490.035 38.5893 495.069 40.552C500.104 42.5147 504.499 45.3733 508.253 49.128L504.285 57.576C500.189 53.992 496.136 51.3893 492.125 49.768C488.115 48.0613 483.421 47.208 478.045 47.208C467.72 47.208 459.869 50.408 454.493 56.808C449.117 63.208 446.429 72.2107 446.429 83.816C446.429 95.4213 449.117 104.467 454.493 110.952C459.869 117.352 467.72 120.552 478.045 120.552C483.421 120.552 488.115 119.741 492.125 118.12C496.136 116.413 500.189 113.725 504.285 110.056L508.253 118.632C504.499 122.301 500.104 125.16 495.069 127.208C490.035 129.171 484.317 130.152 477.917 130.152ZM524.009 83.816C524.009 74.2587 525.63 66.0667 528.873 59.24C532.201 52.328 536.937 46.9947 543.081 43.24C549.31 39.4853 556.777 37.608 565.481 37.608C573.929 37.608 581.267 39.4853 587.497 43.24C593.726 46.9947 598.505 52.328 601.833 59.24C605.246 66.0667 606.953 74.216 606.953 83.688C606.953 93.2453 605.246 101.48 601.833 108.392C598.419 115.304 593.598 120.68 587.369 124.52C581.225 128.275 573.929 130.152 565.481 130.152C556.777 130.152 549.353 128.275 543.209 124.52C537.065 120.68 532.329 115.304 529.001 108.392C525.673 101.48 524.009 93.288 524.009 83.816ZM535.145 83.816C535.145 95.4213 537.705 104.509 542.825 111.08C547.945 117.565 555.497 120.808 565.481 120.808C575.038 120.808 582.462 117.565 587.753 111.08C593.129 104.509 595.817 95.4213 595.817 83.816C595.817 72.1253 593.171 63.08 587.881 56.68C582.59 50.1947 575.123 46.952 565.481 46.952C555.497 46.952 547.945 50.1947 542.825 56.68C537.705 63.08 535.145 72.1253 535.145 83.816ZM630.052 129V38.76H666.916C676.388 38.76 683.726 41.0213 688.932 45.544C694.137 49.9813 696.74 56.2107 696.74 64.232C696.74 69.5227 695.545 74.0453 693.156 77.8C690.852 81.4693 687.566 84.2853 683.3 86.248C679.118 88.2107 674.212 89.192 668.58 89.192L670.884 87.528H673.444C676.942 87.528 680.057 88.3813 682.788 90.088C685.604 91.7947 687.822 94.6533 689.444 98.664L702.244 129H690.596L678.308 99.176C676.857 95.336 674.681 92.8613 671.78 91.752C668.878 90.5573 665.252 89.96 660.9 89.96H640.676V129H630.052ZM640.676 81.64H665.38C672.206 81.64 677.369 80.1893 680.868 77.288C684.452 74.3013 686.244 70.0347 686.244 64.488C686.244 58.9413 684.452 54.7173 680.868 51.816C677.369 48.9147 672.206 47.464 665.38 47.464H640.676V81.64ZM722.517 129V38.76H759.253C768.725 38.76 776.021 41.064 781.141 45.672C786.261 50.1947 788.821 56.5093 788.821 64.616C788.821 72.552 786.261 78.8667 781.141 83.56C776.021 88.168 768.725 90.472 759.253 90.472H733.141V129H722.517ZM733.141 81.64H758.229C764.799 81.64 769.749 80.1467 773.077 77.16C776.49 74.1733 778.197 69.992 778.197 64.616C778.197 59.1547 776.49 54.9307 773.077 51.944C769.749 48.9573 764.799 47.464 758.229 47.464H733.141V81.64Z" fill="#4D4D4D"/>
<g filter="url(#filter0_i_390_27)">
<path d="M19.7555 102.068C19.9439 102.15 68.3358 130.3 71.4498 132.373C66.6365 134.864 62.1482 138.107 57.2662 140.452C56.375 140.88 55.3568 141.068 54.3834 141.227C50.6874 141.286 48.4642 139.615 45.4108 137.812L39.0123 134.046L13.2643 118.892L6.30433 114.751C5.09804 114.031 3.48611 113.005 2.24378 112.423L19.7555 102.068ZM57.0436 73.3344C58.9501 74.3072 61.8596 76.1033 63.7907 77.2572C66.7705 79.1433 70.4355 80.6565 72.9967 83.0873C75.0704 85.0567 74.7404 89.6261 74.7467 92.3207C74.753 95.7851 74.7315 99.2498 74.6823 102.714C74.6336 111.052 74.8028 119.463 74.7164 127.762C74.3843 127.693 71.5329 125.959 71.0065 125.647L61.8414 120.25C60.4416 119.429 58.6446 118.255 57.2301 117.563C57.0595 112.822 57.1916 107.833 57.2047 103.069L57.1198 84.8168C57.1072 81.5764 57.2566 76.4054 57.0436 73.3344ZM107.568 55.558C107.717 56.1613 107.504 63.7279 107.506 64.8607L107.517 88.6361C107.523 93.6951 107.544 98.7575 107.514 103.814C107.496 106.786 107.3 109.63 105.018 111.825C103.046 113.721 100.504 115.027 98.1569 116.411C95.4591 118.015 92.7427 119.59 90.0094 121.133C87.4373 122.577 84.6018 124.094 82.1559 125.714C81.991 118.95 81.9407 112.183 82.0045 105.417C84.5907 103.929 87.0992 102.36 89.7555 100.852C90.0057 89.3868 89.7439 77.2778 89.7858 65.7357C94.0944 63.4456 98.3787 60.653 102.677 58.309C104.244 57.455 106.023 56.4613 107.511 55.4984L107.568 55.558ZM25.3346 36.0375C25.4651 36.4136 25.3948 54.3353 25.4069 56.4828C23.2439 57.4773 19.74 59.762 17.5348 61.0404C17.7169 72.7515 17.4832 84.7846 17.5397 96.5512C16.0885 97.1798 13.9133 98.5513 12.4381 99.3744L0.27308 106.284L0.149056 106.16C-0.0148537 103.069 0.1461 98.8218 0.149056 95.6234L0.136361 74.8773L0.0992516 62.7172C0.0722479 58.8304 -0.717084 52.7172 2.64417 49.8217C3.11642 49.4149 3.5771 48.9447 4.10511 48.6019C10.9253 44.1752 18.3685 40.3846 25.1979 36.0082L25.3346 36.0375ZM33.0045 38.2709C37.7615 41.399 43.136 44.2559 48.0426 47.185C48.862 47.6742 49.791 48.1756 50.6559 48.5687C50.4649 63.2602 50.8368 78.1531 50.6725 92.8461C47.8999 91.15 43.8693 88.9109 41.0182 87.3519C33.1802 83.0661 33.0292 81.6589 32.9811 72.9359C32.9664 70.0222 32.9668 67.108 32.983 64.1937L33.0045 38.2709ZM53.4049 21.0189C57.534 20.6698 63.6856 25.2382 67.2946 27.3139L92.5924 42.1586L100.375 46.7455C101.704 47.5366 103.959 48.9661 105.275 49.5785C101.322 52.2411 96.9221 54.4972 92.816 56.9213C91.2267 57.8591 89.2929 58.9106 87.7858 59.9603C84.9525 58.1942 81.8252 56.4869 78.9176 54.7914L58.0719 42.6225L43.6774 34.2435C41.7818 33.1367 37.639 30.5385 35.8864 29.7992C38.8964 28.1303 41.8569 26.2632 44.8502 24.5521C47.9844 22.7609 49.7197 21.3365 53.4049 21.0189Z" fill="url(#paint0_linear_390_27)"/>
</g>
<defs>
<filter id="filter0_i_390_27" x="0" y="21" width="107.621" height="122.229" filterUnits="userSpaceOnUse" color-interpolation-filters="sRGB">
<feFlood flood-opacity="0" result="BackgroundImageFix"/>
<feBlend mode="normal" in="SourceGraphic" in2="BackgroundImageFix" result="shape"/>
<feColorMatrix in="SourceAlpha" type="matrix" values="0 0 0 0 0 0 0 0 0 0 0 0 0 0 0 0 0 0 127 0" result="hardAlpha"/>
<feOffset dy="2"/>
<feGaussianBlur stdDeviation="5.7"/>
<feComposite in2="hardAlpha" operator="arithmetic" k2="-1" k3="1"/>
<feColorMatrix type="matrix" values="0 0 0 0 0.248495 0 0 0 0 0.780769 0 0 0 0 0.28398 0 0 0 0.25 0"/>
<feBlend mode="normal" in2="shape" result="effect1_innerShadow_390_27"/>
</filter>
<linearGradient id="paint0_linear_390_27" x1="159.356" y1="6.86979" x2="-5.23472" y2="144.769" gradientUnits="userSpaceOnUse">
<stop/>
<stop offset="1" stop-color="#46964E"/>
</linearGradient>
</defs>
</svg>
